<?xml version="1.0"?><svg version="1.2" baseProfile="tiny-ps" viewBox="0 0 275 275" xmlns="http://www.w3.org/2000/svg" xmlns:xlink="http://www.w3.org/1999/xlink"><title>logo</title><g><g fill="#f5f7e9" transform="matrix(.1 0 0 -.1 0 275)"><path d="M1196 2739c-213-29-408-105-597-230l-94-63-100-101-101-100-63-94c-109-165-176-324-218-521l-18-85v-340l18-85c42-197 109-356 218-521l63-94 101-100 100-101 94-63C764 132 923 65 1120 23l85-18h340l85 18c197 42 356 109 521 218l94 63 100 101 101 100 63 94c109 165 176 324 218 521l18 85v340l-18 85c-42 197-109 356-218 521l-63 94-101 100-100 101-94 63c-164 109-326 177-516 216l-80 17-145 3-145 4-69-10z"/></g><g fill="#cccfc9" transform="matrix(.1 0 0 -.1 0 275)"><path d="M1285 2286c-5-2-44-12-85-21l-75-17-90-42-90-43-66-70-66-70-29-69-29-69v-290l36-75 36-75 61-58 62-58 92-44c51-24 160-67 243-95 163-57 193-70 244-108l33-25 19-43 19-43-6-43c-12-79-46-122-124-157l-45-21h-225l-92 20c-50 12-132 37-182 56s-97 36-105 37l-15 2-37-118c-21-65-41-131-44-147l-6-29 58-29c86-44 187-78 303-102l103-23 161 6 161 6 55 14c30 8 95 34 144 56l89 42 59 57 60 57 23 45c13 25 32 74 44 109l21 64v192l-24 68c-32 88-77 157-138 211l-50 44-82 41c-44 22-155 66-246 97s-187 68-213 82l-48 26-31 34-30 35 4 66 3 66 23 32 22 32 55 27 55 26 153-4 152-4 100-36c55-19 107-38 116-42l16-7 12 28c6 15 27 82 46 148l35 120-21 17c-23 20-102 50-214 83l-81 23-160 6c-87 3-163 4-169 2z"/></g><g fill="#a0a5a5" transform="matrix(.1 0 0 -.1 0 275)"><path d="m1193 2262-71-19-86-41-86-41-56-53-55-52-34-71c-41-86-55-152-55-254v-79l21-68c12-38 32-88 45-110l24-41 58-50 58-51 71-35c39-20 144-61 233-92 237-82 294-115 326-190 17-42 18-75 2-128l-12-39-30-31c-17-16-49-38-71-48l-40-19h-260l-82 20c-45 11-125 36-178 56l-97 37-9-14c-12-19-69-203-76-245l-5-33 60-30c85-43 191-77 297-95l90-16h294l70 15 70 14 95 47 95 46 58 59c61 63 84 100 115 188l19 56 6 80 6 80-17 64c-9 36-28 91-42 122l-26 58-69 66-68 66-85 40c-48 22-159 65-248 95s-184 67-211 82l-49 26-23 31-23 30-7 41-6 42 12 41 12 42 38 34 38 34 58 17 58 17 140-10 140-11 70-25c39-14 85-31 103-38l33-14 9 15c8 13 57 184 75 261l6 26-58 25c-32 15-96 38-143 53l-85 27-185 4-185 4-72-18z"/></g><g fill="#737a81" transform="matrix(.1 0 0 -.1 0 275)"><path d="m1194 2257-90-23-75-38-74-37-58-57-59-57-23-45c-13-25-31-73-41-105l-18-60v-100l1-100 18-55c10-30 29-74 42-97l25-42 53-49 53-49 79-41 78-40 164-57c177-61 208-74 259-112l32-24 20-39 20-39v-87l-22-44-23-45-48-32-47-32-55-6-55-7-98 6-97 7-80 21c-44 11-120 36-168 55-49 19-91 32-94 29-6-6-67-206-78-254l-7-32 69-31c106-48 201-77 304-94l94-15h236l71 11 71 11 79 33c44 19 102 48 130 66l51 33 52 64 53 64 27 83 27 83-4 113-4 114-34 75-35 75-55 59-55 58-95 48-95 47-173 57-172 58-47 31-47 32-23 34-23 34v114l29 40 29 40 48 24 49 24 155-1h155l85-28c47-16 98-35 113-43 15-7 32-11 36-8 9 5 32 76 70 213l20 72-47 24c-26 13-93 37-149 54l-102 31-168 5-168 6-91-23z"/></g><g fill="#45515e" transform="matrix(.1 0 0 -.1 0 275)"><path d="M1290 2273c-14-2-56-11-95-19l-70-16-81-39-82-39-56-50-55-51-35-70-35-69-11-57-12-56 4-106 4-106 30-65 31-65 49-49c90-91 162-129 392-207 209-72 285-114 316-176l16-32V889l-14-27c-20-37-63-76-115-102l-45-22-140 5-141 5-90 25c-49 14-123 39-162 56l-73 30-9-17c-8-15-61-195-74-249l-5-21 67-31c92-42 142-59 241-82l85-20 130-6 130-6 87 12 88 12 85 35c47 20 111 54 143 75l57 39 47 62 47 62 23 61 23 60v125l-1 125-29 69-28 69-66 70-65 69-91 45-90 46-175 58-174 59-51 34-52 34-16 35-17 35v103l15 28c21 41 67 77 127 99l53 19 145-7 145-8 90-32c50-17 97-34 107-37l16-5 10 19c11 21 72 233 72 251v12l-47 24c-27 13-86 36-133 51l-85 27-95 4c-177 8-235 10-260 7z"/></g><g fill="#152840" transform="matrix(.1 0 0 -.1 0 275)"><path d="M1196 2250c-107-29-155-50-227-97l-65-43-37-48c-49-64-83-143-97-222l-12-65 7-88 7-89 29-66 30-67 37-38c85-89 173-137 392-212 173-60 225-82 278-122l32-24 20-39 20-39v-92l-19-37c-24-46-53-73-110-102l-44-22-91-5-91-5-89 16c-106 20-234 60-298 92l-47 24-15-43c-20-54-66-215-66-232v-12l82-38 82-37 93-24 93-23 111-12 111-12 118 12 117 12 53 20c83 32 162 74 216 117l51 40 36 54 36 55 26 76 25 76v63c-1 35-6 93-13 129l-13 65-37 66-37 66-52 47-52 47-79 40c-43 21-158 66-255 100-98 33-189 67-203 74-45 23-89 65-109 105l-20 38v82l19 37c23 45 42 62 101 93l45 23 121 4 121 4 89-22c49-12 115-33 146-46 32-13 59-24 62-24 5 0 45 122 71 214l17 59-19 11c-31 19-105 47-183 71l-75 22-185 6-185 6-69-19z"/></g></g></svg>