<?xml version="1.0" encoding="UTF-8" standalone="no"?>
<svg
   data-v-ad13b700=""
   data-name="Layer 1"
   viewBox="0 0 168.10001 194.69999"
   class="w-32 h-20 fill-current icon"
   version="1.1"
   id="svg7"
   width="168.10001"
   height="194.7"
   xmlns="http://www.w3.org/2000/svg"
   xmlns:svg="http://www.w3.org/2000/svg">
  <defs
     id="defs7" />
  <path
     d="m -30.299999,127 84,48.5 L 137.7,127 V 30.000001 l -83.999999,-48.5 -84,48.5 z"
     fill="#469ea2"
     id="path2" />
  <path
     d="m 45.100001,-6.8999988 -61,35.1999998 a 18.19,18.19 0 0 1 0,3.3 l 60.9,35.2 a 14.55,14.55 0 0 1 17.3,0 l 60.899999,-35.2 a 18.19,18.19 0 0 1 0,-3.3 L 62.400001,-6.8999988 a 14.55,14.55 0 0 1 -17.3,0 z M 129.1,41.300001 l -60.999999,35.6 a 14.73,14.73 0 0 1 -8.6,15 l 0.1,69.999999 a 15.57,15.57 0 0 1 2.8,1.6 L 123.3,128.3 a 14.73,14.73 0 0 1 8.6,-15 V 42.900001 a 20,20 0 0 1 -2.8,-1.6 z m -150.799999,0.4 a 15.57,15.57 0 0 1 -2.8,1.6 V 113.7 a 14.38,14.38 0 0 1 8.6,15 l 60.9,35.2 a 15.57,15.57 0 0 1 2.8,-1.6 V 91.900001 a 14.38,14.38 0 0 1 -8.6,-15 z"
     fill="#6acad1"
     id="path3" />
  <path
     d="M 53.700001,-7.9999988 128.8,35.400001 V 122.1 l -75.099999,43.4 -75.1,-43.4 V 35.300001 l 75.1,-43.2999998 m 0,-10.3000002 -84,48.5 V 127.2 l 84,48.5 L 137.7,127.2 V 30.200001 Z"
     fill="#469ea2"
     id="path4" />
  <path
     d="m 54.300001,95.000001 h -1.2 a 15.66,15.66 0 0 1 -15.7,-15.7 v -1.2 a 15.66,15.66 0 0 1 15.7,-15.7 h 1.2 a 15.66,15.66 0 0 1 15.7,15.7 v 1.2 a 15.66,15.66 0 0 1 -15.7,15.7 z m 0,64.499999 h -1.2 a 15.65,15.65 0 0 0 -13.7,8 l 14.3,8.2 14.3,-8.2 a 15.65,15.65 0 0 0 -13.7,-8 z M 137.8,111 h -0.6 a 15.66,15.66 0 0 0 -15.7,15.7 v 1.2 a 15.13,15.13 0 0 0 2,7.6 l 14.3,-8.3 z M 123.5,22.000001 a 15.4,15.4 0 0 0 -2,7.6 v 1.2 a 15.66,15.66 0 0 0 15.7,15.7 h 0.6 v -16.3 z m -69.799999,-40.3 -14.3,8.2 a 15.73,15.73 0 0 0 13.7,8.1000002 h 1.2 a 15.65,15.65 0 0 0 13.7,-8 z m -69.7,40.2 -14.3,8.3 v 16.3 h 0.6 a 15.66,15.66 0 0 0 15.7,-15.7 v -1.2 a 16.63,16.63 0 0 0 -2,-7.7 z M -29.699999,111 h -0.6 v 16.2 l 14.3,8.3 a 15.4,15.4 0 0 0 2,-7.6 v -1.2 a 15.66,15.66 0 0 0 -15.7,-15.7 z"
     fill="#469ea2"
     id="path5" />
  <path
     d="M 53.700001,176.2 V 79.100001 l -84,-48.5 V 127.7 Z"
     fill-opacity="0.15"
     fill="#083b54"
     id="path6" />
  <path
     d="M 137.8,126.8 V 29.800001 l -83.999999,48.5 V 175.4 Z"
     fill-opacity="0.05"
     fill="#083b54"
     id="path7" />
</svg>
