<?xml version="1.0" encoding="UTF-8" standalone="no"?>
<!-- Created with Inkscape (http://www.inkscape.org/) -->

<svg
   width="49.688755mm"
   height="49.688751mm"
   viewBox="0 0 49.688755 49.688751"
   version="1.1"
   id="svg1"
   xmlns="http://www.w3.org/2000/svg"
   xmlns:svg="http://www.w3.org/2000/svg">
  <defs
     id="defs1" />
  <g
     id="layer1"
     transform="translate(-79.904167,-123.56042)">
    <path
       class="st0"
       d="m 104.74854,173.24917 c 13.73188,0 24.84438,-11.13896 24.84438,-24.84438 0,-13.70542 -11.13896,-24.84437 -24.84438,-24.84437 -13.705415,0 -24.844373,11.1125 -24.844373,24.84437 0,13.73188 11.138958,24.84438 24.844373,24.84438 z"
       id="path1"
       style="clip-rule:evenodd;fill:#34b088;fill-rule:evenodd;stroke-width:0.264583" />
    <path
       class="st1"
       d="m 100.22417,135.12271 c 0,-1.00542 0.82021,-1.82563 1.82562,-1.82563 6.82625,0 12.32958,5.50334 12.32958,12.30313 0,1.00541 -0.8202,1.82562 -1.82562,1.82562 -1.00542,0 -1.82563,-0.82021 -1.82563,-1.82562 0,-4.78896 -3.88937,-8.67834 -8.70479,-8.67834 -1.00541,0.0265 -1.79916,-0.79375 -1.79916,-1.79916 z"
       id="path2"
       style="clip-rule:evenodd;fill:#ffffff;fill-rule:evenodd;stroke-width:0.264583" />
    <path
       class="st1"
       d="m 118.03062,143.80104 c 1.00542,0 1.82563,0.82021 1.82563,1.82563 0,6.79979 -5.52979,12.30312 -12.32958,12.30312 -1.00542,0 -1.82563,-0.82021 -1.82563,-1.82562 0,-1.00542 0.82021,-1.82563 1.82563,-1.82563 4.81541,0 8.70479,-3.88937 8.70479,-8.67833 -0.0265,-0.97896 0.79375,-1.79917 1.79916,-1.79917 z"
       id="path3"
       style="clip-rule:evenodd;fill:#ffffff;fill-rule:evenodd;stroke-width:0.264583" />
    <path
       class="st1"
       d="m 109.32583,161.68687 c 0,1.00542 -0.8202,1.82563 -1.82562,1.82563 -6.82625,0 -12.329585,-5.50333 -12.329585,-12.30313 0,-1.00541 0.820209,-1.82562 1.825625,-1.82562 1.005417,0 1.825625,0.82021 1.825625,1.82562 0,4.78896 3.889375,8.67834 8.704795,8.67834 0.97896,-0.0265 1.79916,0.79375 1.79916,1.79916 z"
       id="path4"
       style="clip-rule:evenodd;fill:#ffffff;fill-rule:evenodd;stroke-width:0.264583" />
    <path
       class="st1"
       d="m 91.492917,153.00854 c -1.005417,0 -1.825625,-0.82021 -1.825625,-1.82562 0,-6.7998 5.529792,-12.30313 12.329588,-12.30313 1.00541,0 1.82562,0.82021 1.82562,1.82563 0,1.00541 -0.82021,1.82562 -1.82562,1.82562 -4.815422,0 -8.704796,3.88938 -8.704796,8.67833 0.02646,0.97896 -0.79375,1.79917 -1.799167,1.79917 z"
       id="path5"
       style="clip-rule:evenodd;fill:#ffffff;fill-rule:evenodd;stroke-width:0.264583" />
  </g>
</svg>
