<?xml version="1.0" encoding="UTF-8" standalone="no"?>
<svg
   data-v-ad13b700=""
   data-name="Layer 1"
   viewBox="0 0 168.10001 194.69999"
   class="w-32 h-20 fill-current icon"
   version="1.1"
   id="svg7"
   width="168.10001"
   height="194.7"
   xmlns="http://www.w3.org/2000/svg"
   xmlns:svg="http://www.w3.org/2000/svg">
  <defs
     id="defs7" />
  <path
     d="m 0,145.5 84,48.5 84,-48.5 v -97 L 84,0 0,48.5 Z"
     fill="#469ea2"
     id="path2" />
  <path
     d="m 75.4,11.6 -61,35.2 a 18.19,18.19 0 0 1 0,3.3 l 60.9,35.2 a 14.55,14.55 0 0 1 17.3,0 l 60.9,-35.2 a 18.19,18.19 0 0 1 0,-3.3 L 92.7,11.6 a 14.55,14.55 0 0 1 -17.3,0 z m 84,48.2 -61,35.6 a 14.73,14.73 0 0 1 -8.6,15 l 0.1,70 a 15.57,15.57 0 0 1 2.8,1.6 l 60.9,-35.2 a 14.73,14.73 0 0 1 8.6,-15 V 61.4 a 20,20 0 0 1 -2.8,-1.6 z M 8.6,60.2 a 15.57,15.57 0 0 1 -2.8,1.6 v 70.4 a 14.38,14.38 0 0 1 8.6,15 l 60.9,35.2 a 15.57,15.57 0 0 1 2.8,-1.6 v -70.4 a 14.38,14.38 0 0 1 -8.6,-15 z"
     fill="#6acad1"
     id="path3" />
  <path
     d="m 84,10.5 75.1,43.4 v 86.7 L 84,184 8.9,140.6 V 53.8 L 84,10.5 M 84,0.2 0,48.7 v 97 l 84,48.5 84,-48.5 v -97 z"
     fill="#469ea2"
     id="path4" />
  <path
     d="M 84.6,113.5 H 83.4 A 15.66,15.66 0 0 1 67.7,97.8 V 96.6 A 15.66,15.66 0 0 1 83.4,80.9 h 1.2 a 15.66,15.66 0 0 1 15.7,15.7 v 1.2 a 15.66,15.66 0 0 1 -15.7,15.7 z m 0,64.5 h -1.2 a 15.65,15.65 0 0 0 -13.7,8 L 84,194.2 98.3,186 a 15.65,15.65 0 0 0 -13.7,-8 z m 83.5,-48.5 h -0.6 a 15.66,15.66 0 0 0 -15.7,15.7 v 1.2 a 15.13,15.13 0 0 0 2,7.6 l 14.3,-8.3 z m -14.3,-89 a 15.4,15.4 0 0 0 -2,7.6 v 1.2 A 15.66,15.66 0 0 0 167.5,65 h 0.6 V 48.7 Z M 84,0.2 69.7,8.4 a 15.73,15.73 0 0 0 13.7,8.1 h 1.2 a 15.65,15.65 0 0 0 13.7,-8 z M 14.3,40.4 0,48.7 V 65 H 0.6 A 15.66,15.66 0 0 0 16.3,49.3 v -1.2 a 16.63,16.63 0 0 0 -2,-7.7 z M 0.6,129.5 H 0 v 16.2 l 14.3,8.3 a 15.4,15.4 0 0 0 2,-7.6 v -1.2 A 15.66,15.66 0 0 0 0.6,129.5 Z"
     fill="#469ea2"
     id="path5" />
  <path
     d="M 84,194.7 V 97.6 L 0,49.1 v 97.1 z"
     fill-opacity="0.15"
     fill="#083b54"
     id="path6" />
  <path
     d="m 168.1,145.3 v -97 l -84,48.5 v 97.1 z"
     fill-opacity="0.05"
     fill="#083b54"
     id="path7" />
</svg>
