<?xml version="1.0" encoding="UTF-8" standalone="no"?>
<!-- Created with Inkscape (http://www.inkscape.org/) -->

<svg
   id="svg1"
   sodipodi:docname="irc.svg"
   viewBox="0 0 51.28204 25.603642"
   sodipodi:version="0.32"
   version="1.0"
   y="0"
   x="0"
   inkscape:version="1.4.2 (ebf0e940d0, 2025-05-08)"
   width="51.28204"
   height="25.603642"
   xmlns:inkscape="http://www.inkscape.org/namespaces/inkscape"
   xmlns:sodipodi="http://sodipodi.sourceforge.net/DTD/sodipodi-0.dtd"
   xmlns="http://www.w3.org/2000/svg"
   xmlns:svg="http://www.w3.org/2000/svg"
   xmlns:rdf="http://www.w3.org/1999/02/22-rdf-syntax-ns#"
   xmlns:cc="http://creativecommons.org/ns#"
   xmlns:dc="http://purl.org/dc/elements/1.1/">
  <defs
     id="defs1" />
  <sodipodi:namedview
     id="base"
     bordercolor="#666666"
     inkscape:pageshadow="2"
     inkscape:window-width="1422"
     pagecolor="#ffffff"
     snaptoguides="true"
     inkscape:zoom="6.9465337"
     inkscape:window-x="0"
     borderopacity="1.0"
     inkscape:cx="33.685866"
     inkscape:cy="4.2467224"
     inkscape:window-y="0"
     inkscape:window-height="721"
     inkscape:pageopacity="0.0"
     showguides="true"
     inkscape:showpageshadow="2"
     inkscape:pagecheckerboard="0"
     inkscape:deskcolor="#d1d1d1"
     inkscape:window-maximized="1"
     inkscape:current-layer="svg1" />
  <path
     id="path832"
     style="fill:#333333;stroke-width:2.6872pt"
     d="m 36.843716,16.408043 c 0,-1.668751 0.357397,-3.208517 1.072192,-4.613922 0.712108,-1.418842 1.70906,-2.5313426 2.990854,-3.3375026 1.289856,-0.8088472 2.759754,-1.2146144 4.407008,-1.2146144 0.87334,0 1.770865,0.107488 2.692574,0.3170896 0.924397,0.1988528 1.700998,0.5455016 2.33249,1.0372592 0.628805,0.4944448 0.943207,1.1608704 0.943207,2.0019642 0,0.6718 -0.198853,1.233425 -0.596558,1.682187 -0.389644,0.45145 -0.878715,0.677174 -1.464524,0.677174 -0.284843,0 -0.561625,-0.04568 -0.835719,-0.139734 -0.263346,-0.09405 -0.529379,-0.196166 -0.803473,-0.300966 -0.260659,-0.11555 -0.545502,-0.209602 -0.849155,-0.282156 -0.295592,-0.07255 -0.666426,-0.110176 -1.117876,-0.110176 -0.819596,0 -1.512893,0.193479 -2.079892,0.583123 -0.556251,0.376208 -0.975454,0.89215 -1.25761,1.542453 -0.274094,0.639553 -0.411142,1.359723 -0.411142,2.157821 0,0.776601 0.137048,1.499458 0.411142,2.171258 0.271407,0.661051 0.666426,1.187742 1.179681,1.574699 0.524004,0.389644 1.144747,0.583122 1.856855,0.583122 0.808847,0 1.623069,-0.15317 2.442665,-0.456824 0.816909,-0.303653 1.305979,-0.456824 1.464524,-0.456824 0.376208,0 0.722857,0.110176 1.037259,0.330526 0.31709,0.22035 0.561625,0.510568 0.741667,0.865278 0.188104,0.346649 0.282156,0.704047 0.282156,1.072193 0,0.776601 -0.341274,1.432278 -1.023823,1.967031 -0.6718,0.53744 -1.472586,0.924396 -2.407731,1.166244 -0.935146,0.252597 -1.778927,0.378896 -2.536717,0.378896 -1.246861,0 -2.391608,-0.2311 -3.431554,-0.693298 -1.029198,-0.462198 -1.926723,-1.117875 -2.692575,-1.969718 -0.765852,-0.859904 -1.348974,-1.846106 -1.74668,-2.958607 -0.400393,-1.123249 -0.599245,-2.316366 -0.599245,-3.573976 z M 26.168814,22.626224 V 10.187175 c 0,-0.7443542 0.23083,-1.3650974 0.69276,-1.856855 0.472409,-0.5051936 1.075955,-0.7551032 1.810635,-0.7551032 0.60892,0 1.13373,0.161232 1.574699,0.4863832 0.451181,0.3144024 0.766121,0.6879232 0.944551,1.1178752 1.081329,-1.289856 2.2422,-1.9374712 3.480999,-1.9374712 0.679862,0 1.279107,0.2472224 1.79505,0.7416672 0.524004,0.483696 0.784662,1.1071264 0.784662,1.8729784 0,0.7873494 -0.244535,1.3597234 -0.73898,1.7171204 -0.483696,0.357398 -1.284482,0.698672 -2.407731,1.023824 -1.144747,0.325151 -1.915974,0.733605 -2.316367,1.22805 -0.398243,0.481009 -0.597633,1.354349 -0.597633,2.611958 v 6.188622 c 0,0.744354 -0.236205,1.375846 -0.708346,1.889102 -0.46193,0.505193 -1.065475,0.755103 -1.810904,0.755103 -0.73468,0 -1.338226,-0.24991 -1.810635,-0.755103 -0.46193,-0.513256 -0.69276,-1.144748 -0.69276,-1.889102 z m -7.258665,0 V 10.187175 c 0,-0.7443542 0.231099,-1.3650974 0.69276,-1.856855 0.47241,-0.5051936 1.075955,-0.7551032 1.810904,-0.7551032 0.745161,0 1.348706,0.2499096 1.810635,0.7551032 0.47241,0.4917576 0.708615,1.1125008 0.708615,1.856855 v 12.439049 c 0,0.744354 -0.236205,1.375846 -0.708615,1.889102 -0.461929,0.505193 -1.065474,0.755103 -1.810635,0.755103 -0.734949,0 -1.338494,-0.24991 -1.810904,-0.755103 -0.461661,-0.513256 -0.69276,-1.144748 -0.69276,-1.889102 z M 18.422153,3.0231 c 0,-0.819596 0.293711,-1.5263296 0.881671,-2.1255752 C 19.891514,0.2982792 20.595023,0 21.413813,0 c 0.829001,0 1.537616,0.295592 2.125575,0.8814016 0.587691,0.5884968 0.881671,1.303292 0.881671,2.1416984 0,0.8706528 -0.29398,1.5961968 -0.881671,2.1739448 -0.587959,0.577748 -1.296574,0.8652784 -2.125575,0.8652784 -0.81879,0 -1.522299,-0.2929048 -2.109989,-0.8814016 C 18.715864,4.5924248 18.422153,3.8749424 18.422153,3.0231 Z M 2.2043639,22.800892 2.771175,18.563178 H 1.5588447 c -0.5352902,0 -0.92896502,-0.150484 -1.18102438,-0.456824 C 0.12602968,17.791951 0,17.421118 0,16.988478 0,16.558526 0.12602968,16.198442 0.37782032,15.90285 0.62987968,15.599196 1.0235545,15.446026 1.5588447,15.446026 h 1.6374722 l 0.519597,-3.872256 h -1.228131 c -0.5247833,0 -0.9133524,-0.15317 -1.1651431,-0.456824 -0.2520593,-0.314402 -0.37782028,-0.687923 -0.37782028,-1.1178748 0,-0.4407008 0.12576098,-0.8088472 0.37782028,-1.101752 0.2517907,-0.3063408 0.6403598,-0.456824 1.1651431,-0.456824 h 1.700487 L 4.881057,3.385872 C 4.9545357,2.8511192 5.122475,2.4346032 5.384907,2.1416984 5.657819,1.8487936 6.0882009,1.7009976 6.6760259,1.7009976 c 0.419875,0 0.766282,0.120924 1.039194,0.362772 0.2730195,0.2310992 0.4092606,0.550876 0.4092606,0.9593304 0,0.1800424 -0.04192,0.5669992 -0.125761,1.1662448 L 7.4160539,8.4404952 H 10.328979 L 11.005884,3.385872 c 0.07363,-0.5347528 0.24158,-0.9512688 0.50385,-1.2441736 0.27302,-0.2929048 0.703241,-0.4407008 1.2912,-0.4407008 0.419741,0 0.766121,0.120924 1.03914,0.362772 0.27302,0.241848 0.409261,0.5616248 0.409261,0.9593304 0,0.1800424 -0.04192,0.5669992 -0.125761,1.1662448 l -0.582585,4.2511504 h 1.22805 c 0.545771,0 0.939445,0.1504832 1.181025,0.456824 0.25179,0.2929048 0.37782,0.6610512 0.37782,1.101752 0,0.4299518 -0.12603,0.8034728 -0.37782,1.1178748 -0.25206,0.303654 -0.645734,0.456824 -1.181025,0.456824 H 13.13146 l -0.519436,3.872256 h 1.22805 c 0.545771,0 0.939445,0.147796 1.180756,0.4407 0.241579,0.295592 0.362235,0.661052 0.362235,1.101752 0,0.440701 -0.12603,0.814222 -0.377821,1.117876 -0.241579,0.30634 -0.629879,0.456824 -1.16517,0.456824 H 12.12376 l -0.676906,5.0385 c -0.07363,0.526691 -0.241579,0.935145 -0.50385,1.22805 -0.262539,0.295592 -0.69276,0.440701 -1.2911997,0.440701 -0.4197406,0 -0.7714951,-0.11555 -1.0549947,-0.343962 -0.2727508,-0.241848 -0.4092605,-0.566999 -0.4092605,-0.978141 0,-0.209601 0.047295,-0.591184 0.1416154,-1.147434 l 0.582585,-4.237714 H 5.9988247 l -0.6769863,5.0385 c -0.073468,0.53744 -0.2466581,0.951268 -0.519597,1.244173 -0.2624132,0.284843 -0.6927871,0.424578 -1.291119,0.424578 -0.4093681,0 -0.755775,-0.11555 -1.0391671,-0.343962 -0.2729389,-0.241848 -0.4093412,-0.566999 -0.4093412,-0.978141 0,-0.209601 0.047187,-0.591184 0.1416692,-1.147434 z M 9.3842936,15.446026 9.9039981,11.57377 H 6.9752188 l -0.5195701,3.872256 h 2.9285105 z" />
  <metadata
     id="metadata1">
    <rdf:RDF>
      <cc:Work>
        <dc:format>image/svg+xml</dc:format>
        <dc:type
           rdf:resource="http://purl.org/dc/dcmitype/StillImage" />
        <cc:license
           rdf:resource="http://creativecommons.org/publicdomain/zero/1.0/" />
        <dc:publisher>
          <cc:Agent
             rdf:about="http://openclipart.org/">
            <dc:title>Openclipart</dc:title>
          </cc:Agent>
        </dc:publisher>
        <dc:title>ftirc protocol</dc:title>
        <dc:date>2011-01-31T02:11:49</dc:date>
        <dc:description>Originally uploaded by Danny Allen for OCAL 0.18 this icon is part of the flat theme</dc:description>
        <dc:source>https://openclipart.org/detail/115375/ftirc-protocol-by-anonymous</dc:source>
        <dc:creator>
          <cc:Agent>
            <dc:title>Anonymous</dc:title>
          </cc:Agent>
        </dc:creator>
        <dc:subject>
          <rdf:Bag>
            <rdf:li>flat</rdf:li>
            <rdf:li>icon</rdf:li>
            <rdf:li>theme</rdf:li>
          </rdf:Bag>
        </dc:subject>
      </cc:Work>
      <cc:License
         rdf:about="http://creativecommons.org/publicdomain/zero/1.0/">
        <cc:permits
           rdf:resource="http://creativecommons.org/ns#Reproduction" />
        <cc:permits
           rdf:resource="http://creativecommons.org/ns#Distribution" />
        <cc:permits
           rdf:resource="http://creativecommons.org/ns#DerivativeWorks" />
      </cc:License>
    </rdf:RDF>
  </metadata>
</svg>
