<?xml version="1.0" encoding="UTF-8" standalone="no"?>
<svg
   id="svg10"
   version="1.1"
   viewBox="0 0 38.692815 27.117038"
   height="102.48912"
   width="146.24059"
   xmlns:xlink="http://www.w3.org/1999/xlink"
   xmlns="http://www.w3.org/2000/svg"
   xmlns:svg="http://www.w3.org/2000/svg"
   xmlns:rdf="http://www.w3.org/1999/02/22-rdf-syntax-ns#"
   xmlns:cc="http://creativecommons.org/ns#"
   xmlns:dc="http://purl.org/dc/elements/1.1/">
  <metadata
     id="metadata16">
    <rdf:RDF>
      <cc:Work
         rdf:about="">
        <dc:format>image/svg+xml</dc:format>
        <dc:type
           rdf:resource="http://purl.org/dc/dcmitype/StillImage" />
      </cc:Work>
    </rdf:RDF>
  </metadata>
  <style
     id="style1">
		#g8 {
    	animation-name: floating;
    	animation-duration: 3s;
    	animation-iteration-count: infinite;
   	 	animation-timing-function: ease-in-out;
		}

		@keyframes floating {
    	0% { transform: translate(0,  0px); }
    	50% { transform: translate(0, -5px); }
    	100% { transform: translate(0, 0px); }
		}
	</style>
  <linearGradient
     id="myGradient"
     gradientTransform="rotate(90)">
    <stop
       offset="5%"
       stop-color="#A1CA03"
       id="stop1" />
    <stop
       offset="95%"
       stop-color="#91BA03"
       id="stop2" />
  </linearGradient>
  <defs
     id="defs14">
    <linearGradient
       xlink:href="#myGradient"
       id="linearGradient2"
       gradientTransform="scale(1.1945246,0.83715316)"
       x1="11.074699"
       y1="15.80232"
       x2="43.466667"
       y2="15.80232"
       gradientUnits="userSpaceOnUse" />
    <linearGradient
       xlink:href="#myGradient"
       id="linearGradient6"
       gradientUnits="userSpaceOnUse"
       gradientTransform="scale(1.1945246,0.83715316)"
       x1="11.074699"
       y1="15.80232"
       x2="43.466667"
       y2="15.80232" />
  </defs>
  <g
     id="g4"
     style="font-weight:400;line-height:476.695px;font-family:'OTADESIGN Rounded';-inkscape-font-specification:'OTADESIGN Rounded';font-variation-settings:normal;letter-spacing:0;word-spacing:0;opacity:1;vector-effect:none;fill:url(#linearGradient2);fill-opacity:1;stroke-width:1;stroke-linecap:butt;stroke-linejoin:miter;stroke-miterlimit:4;stroke-dasharray:none;stroke-dashoffset:0;stroke-opacity:1;-inkscape-stroke:none;stop-color:#000000;stop-opacity:1"
     transform="translate(-13.229092,-13.228962)">
    <path
       id="path2"
       font-size="141.034"
       aria-label="Mi"
       d="m 27.595,34.59 c -1.676,0.006 -3.115,-1.004 -3.793,-2.179 -0.363,-0.513 -1.08,-0.696 -1.09,0 v 3.214 c 0,1.291 -0.47,2.408 -1.412,3.35 -0.915,0.914 -2.031,1.371 -3.35,1.371 -1.29,0 -2.407,-0.457 -3.349,-1.372 -0.914,-0.941 -1.372,-2.058 -1.372,-3.349 V 17.95 c 0,-0.995 0.283,-1.896 0.848,-2.703 0.591,-0.834 1.345,-1.413 2.26,-1.735 0.516591,-0.189385 1.062793,-0.285215 1.613,-0.283 1.453,0 2.664,0.565 3.632,1.695 l 4.832,5.608 c 0.108,0.08 0.424,0.697 1.18,0.697 0.758,0 1.115,-0.617 1.222,-0.698 l 4.791,-5.607 c 0.996,-1.13 2.22,-1.695 3.673,-1.695 0.538,0 1.076,0.094 1.614,0.283 0.914,0.322 1.654,0.9 2.22,1.735 0.591,0.807 0.887,1.708 0.887,2.703 v 17.675 c 0,1.291 -0.47,2.408 -1.412,3.35 -0.915,0.914 -2.032,1.371 -3.35,1.371 -1.291,0 -2.407,-0.457 -3.35,-1.372 -0.914,-0.941 -1.371,-2.058 -1.371,-3.349 v -3.214 c -0.08,-0.877 -0.855,-0.324 -1.13,0 -0.726,1.345 -2.118,2.173 -3.793,2.18 z M 47.806,21.38 c -1.13,0 -2.098333,-0.39 -2.905,-1.17 -0.78,-0.806667 -1.17,-1.775 -1.17,-2.905 0,-1.13 0.39,-2.085 1.17,-2.865 0.806667,-0.806667 1.775,-1.21 2.905,-1.21 1.13,0 2.098667,0.403333 2.906,1.21 0.806667,0.78 1.21,1.735 1.21,2.865 0,1.13 -0.403333,2.098333 -1.21,2.905 -0.807333,0.78 -1.776,1.17 -2.906,1.17 z m 0.04,0.808 c 1.13,0 2.085333,0.403333 2.866,1.21 0.806667,0.806667 1.21,1.775333 1.21,2.906 v 9.967 c 0,1.13 -0.403333,2.098333 -1.21,2.905 -0.78,0.78 -1.735333,1.17 -2.866,1.17 -1.129333,0 -2.097667,-0.39 -2.905,-1.17 -0.806667,-0.806667 -1.21,-1.775 -1.21,-2.905 v -9.967 c 0,-1.13 0.403333,-2.098667 1.21,-2.906 0.806667,-0.806667 1.775,-1.21 2.905,-1.21 z"
       style="font-size:141.034px;-inkscape-font-specification:'OTADESIGN Rounded';font-variation-settings:normal;vector-effect:none;fill:url(#linearGradient6);fill-opacity:1;stroke-width:1;stroke-linecap:butt;stroke-linejoin:miter;stroke-miterlimit:4;stroke-dasharray:none;stroke-dashoffset:0;stroke-opacity:1;-inkscape-stroke:none;stop-color:#000000;stop-opacity:1" />
  </g>
</svg>
