<?xml version="1.0" encoding="UTF-8" standalone="no"?>
<svg
   version="1.2"
   viewBox="0 0 474.39999 473.89999"
   width="474.39999"
   height="473.89999"
   id="svg1"
   sodipodi:docname="signal.svg"
   inkscape:version="1.4.2 (ebf0e940d0, 2025-05-08)"
   xmlns:inkscape="http://www.inkscape.org/namespaces/inkscape"
   xmlns:sodipodi="http://sodipodi.sourceforge.net/DTD/sodipodi-0.dtd"
   xmlns="http://www.w3.org/2000/svg"
   xmlns:svg="http://www.w3.org/2000/svg"
   xmlns:rdf="http://www.w3.org/1999/02/22-rdf-syntax-ns#"
   xmlns:cc="http://creativecommons.org/ns#"
   xmlns:dc="http://purl.org/dc/elements/1.1/">
  <defs
     id="defs1" />
  <sodipodi:namedview
     id="namedview1"
     pagecolor="#ffffff"
     bordercolor="#999999"
     borderopacity="1"
     inkscape:showpageshadow="2"
     inkscape:pageopacity="0"
     inkscape:pagecheckerboard="0"
     inkscape:deskcolor="#d1d1d1"
     inkscape:zoom="0.40978189"
     inkscape:cx="756.5"
     inkscape:cy="236.71129"
     inkscape:window-width="1422"
     inkscape:window-height="764"
     inkscape:window-x="0"
     inkscape:window-y="0"
     inkscape:window-maximized="1"
     inkscape:current-layer="svg1" />
  <title
     id="title1">Signal_logo_(2020)-svg</title>
  <style
     id="style1">
		.s0 { fill: #3a76f0 } 
		.s1 { fill: #1b1b1b } 
	</style>
  <path
     id="Layer"
     fill-rule="evenodd"
     class="s0"
     d="m 180.4,6.8 5.3,21.6 q -7.9,1.9 -15.6,4.4 -7.7,2.5 -15.1,5.6 -7.5,3.1 -14.7,6.8 -7.3,3.6 -14.2,7.8 L 114.7,34 q 7.6,-4.6 15.6,-8.7 7.9,-4 16.2,-7.4 8.2,-3.4 16.7,-6.2 8.5,-2.7 17.2,-4.9 z m 131,4.9 q 8.5,2.8 16.7,6.2 8.3,3.4 16.2,7.4 8,4.1 15.7,8.7 l -11.5,19 q -7,-4.2 -14.2,-7.8 -7.2,-3.7 -14.7,-6.8 -7.5,-3.1 -15.2,-5.6 -7.7,-2.5 -15.5,-4.4 l 5.3,-21.6 q 8.7,2.1 17.2,4.9 z M 53.2,125.8 q -4.2,6.9 -7.8,14.1 -3.7,7.3 -6.7,14.7 -3.1,7.5 -5.7,15.2 -2.5,7.7 -4.4,15.5 L 7,180 q 2.1,-8.7 4.9,-17.1 2.8,-8.5 6.2,-16.7 3.4,-8.3 7.4,-16.2 4.1,-8 8.7,-15.6 z M 22.4,244.9 q 0.2,4.1 0.5,8.1 0.3,4 0.7,8 0.5,4 1.1,8 l -22,3.4 Q 1.4,263.6 0.7,254.7 0,245.8 0,236.9 0,228 0.7,219.1 q 0.7,-8.9 2,-17.7 l 22,3.3 q -0.6,4 -1.1,8 -0.4,4 -0.7,8 -0.3,4.1 -0.5,8.1 -0.1,4 -0.1,8.1 0,4 0.1,8 z m 321.9,203.5 q -8,4 -16.2,7.4 -8.3,3.4 -16.7,6.2 -8.5,2.8 -17.2,4.9 l -5.3,-21.5 q 7.9,-2 15.5,-4.5 7.7,-2.5 15.2,-5.6 7.5,-3.1 14.7,-6.7 7.2,-3.7 14.1,-7.9 l 11.4,19.1 q -7.6,4.6 -15.5,8.6 z M 452.1,228.8 q -0.2,-4 -0.5,-8.1 -0.3,-4 -0.8,-8 -0.4,-4 -1,-8 l 22,-3.3 q 1.3,8.8 2,17.7 0.6,8.9 0.6,17.8 0,8.9 -0.6,17.8 -0.7,8.9 -2,17.7 l -22,-3.4 q 0.6,-4 1,-8 0.5,-4 0.8,-8 0.3,-4 0.5,-8.1 0.1,-4 0.1,-8 0,-4.1 -0.1,-8.1 z m 10.5,82.1 q -2.8,8.5 -6.2,16.7 -3.4,8.3 -7.4,16.2 -4,8 -8.7,15.6 l -19,-11.5 q 4.2,-6.9 7.8,-14.1 3.7,-7.2 6.8,-14.7 3.1,-7.5 5.6,-15.2 2.5,-7.6 4.4,-15.5 l 21.6,5.3 q -2.1,8.7 -4.9,17.2 z M 272.8,471.2 q -8.8,1.3 -17.7,2 -8.9,0.7 -17.9,0.7 -8.9,0 -17.8,-0.7 -8.9,-0.7 -17.7,-2 l 3.3,-21.9 q 8,1.2 16.1,1.8 8.1,0.6 16.1,0.6 8.1,0 16.2,-0.6 8,-0.6 16,-1.8 z M 391.4,121 c 36.5,48.3 48,111 31.2,169.2 -16.7,58.1 -59.9,105 -116.5,126.6 C 249.5,438.3 186,432 134.7,399.7 l -79,18.6 18.5,-79 C 55.9,310.2 45.7,276.7 44.7,242.3 43.8,207.9 52,173.9 68.7,143.7 85.3,113.6 109.8,88.5 139.4,71 169.1,53.5 202.9,44.3 237.3,44.3 297.9,44.2 355,72.7 391.4,121 Z M 378.1,46.1 q 7.2,5.2 13.9,11 6.8,5.8 13.1,12.1 6.3,6.3 12.1,13 5.8,6.8 11,13.9 l -17.9,13.3 q -4.8,-6.5 -10,-12.6 Q 395,90.7 389.3,85 383.6,79.3 377.4,74 371.3,68.7 364.8,63.9 Z M 46.3,96.2 Q 51.6,89 57.4,82.3 63.2,75.6 69.5,69.3 75.8,63 82.5,57.2 89.3,51.4 96.4,46.1 L 109.8,64 q -6.5,4.8 -12.7,10.1 -6.1,5.3 -11.8,11 -5.7,5.7 -11,11.8 Q 69,103 64.2,109.5 Z M 449,130 q 4,8 7.4,16.2 3.4,8.2 6.2,16.7 2.8,8.4 4.9,17.1 l -21.6,5.3 q -1.9,-7.8 -4.4,-15.5 -2.5,-7.7 -5.6,-15.1 -3.1,-7.5 -6.8,-14.7 -3.6,-7.2 -7.8,-14.2 l 19.1,-11.4 q 4.6,7.7 8.6,15.6 z M 201.7,2.6 q 8.8,-1.3 17.7,-2 8.9,-0.6 17.9,-0.6 8.9,0 17.8,0.6 8.9,0.7 17.7,2 l -3.3,22 q -8,-1.2 -16.1,-1.8 -8.1,-0.6 -16.1,-0.6 -8.1,0 -16.2,0.6 -8.1,0.6 -16.1,1.8 z m -121,452.7 -45.9,10.6 c -3.7,0.8 -7.5,0.7 -11.2,-0.3 -3.6,-1 -6.9,-3 -9.6,-5.7 -2.7,-2.6 -4.6,-5.9 -5.6,-9.6 -1.1,-3.6 -1.2,-7.5 -0.3,-11.1 l 10.7,-45.9 21.6,5.1 -10.7,45.8 46,-10.7 z M 28.8,350.1 q -3.6,-6.7 -6.8,-13.6 -3.2,-6.8 -5.9,-13.9 -2.8,-7.1 -5,-14.3 Q 8.8,301.1 7,293.7 l 21.5,-5.3 q 1.9,7.7 4.4,15.2 2.4,7.5 5.4,14.8 3,7.4 6.6,14.4 3.5,7.1 7.6,13.9 l -7.5,31.8 -21.6,-5 z m 98.5,71.4 q 6.7,4 13.8,7.6 7.1,3.5 14.4,6.5 7.3,3 14.8,5.5 7.5,2.5 15.2,4.4 l -5.4,21.5 q -7.3,-1.8 -14.6,-4 -7.2,-2.3 -14.3,-5.1 -7,-2.7 -13.9,-5.9 -6.9,-3.2 -13.6,-6.8 l -23.4,5.4 -5,-21.6 31.8,-7.4 z m 300.9,-43.9 q -5.3,7.2 -11.1,13.9 -5.8,6.8 -12.1,13 -6.4,6.3 -13.1,12.1 -6.8,5.8 -14,11.1 l -13.1,-17.9 q 6.5,-4.8 12.6,-10.1 6.1,-5.2 11.8,-10.9 5.8,-5.7 11,-11.9 5.3,-6.1 10.1,-12.6 z" />
  <metadata
     id="metadata1">
    <rdf:RDF>
      <cc:Work
         rdf:about="">
        <dc:title>Signal_logo_(2020)-svg</dc:title>
      </cc:Work>
    </rdf:RDF>
  </metadata>
</svg>
