<?xml version="1.0" encoding="utf-8"?>
<!-- Generator: Adobe Illustrator 21.0.0, SVG Export Plug-In . SVG Version: 6.00 Build 0)  -->
<svg version="1.1" id="Layer_1" xmlns="http://www.w3.org/2000/svg" xmlns:xlink="http://www.w3.org/1999/xlink" x="0px" y="0px"
	 viewBox="0 0 512 512" style="enable-background:new 0 0 512 512;" xml:space="preserve">
<g>
	<path d="M177.4,6.4v138.8L50,102.7l-50,150l127.9,42.7L44,408.5l127,94.3L253.9,391l78.4,114.6l130.5-89.3l-81.3-118.7L512,255.4
		l-48.6-150.5L358,146.2L335.4,6.4H177.4z M222.4,51.5h67.9v156.8l143.9-46.5l20.8,64.5L310,273.2L400,404.6l-56,38.3l-88.7-129.6
		l-93.7,126.4l-54.5-40.4l94.2-127L57.2,224.2l21.4-64.3l143.9,49.8V51.5z"/>
</g>
</svg>
