<?xml version="1.0" encoding="utf-8"?>
<!-- Generator: Adobe Illustrator 23.0.1, SVG Export Plug-In . SVG Version: 6.00 Build 0)  -->
<svg version="1.1" id="Layer_1" xmlns="http://www.w3.org/2000/svg" xmlns:xlink="http://www.w3.org/1999/xlink" x="0px" y="0px"
	 viewBox="0 0 1000 1000" style="enable-background:new 0 0 1000 1000;" xml:space="preserve">
<style type="text/css">
	.st0{fill:#EE4342;}
	.st1{fill:#BCBEC0;}
	.st2{fill:#3E5A98;}
	.st3{fill:#020202;}
	.st4{fill:#E6E7E8;}
	.st5{fill:#A7A9AC;}
	.st6{fill:none;stroke:#000000;stroke-width:18;stroke-miterlimit:10;}
	.st7{fill-rule:evenodd;clip-rule:evenodd;fill:#BCBEC0;}
	.st8{fill-rule:evenodd;clip-rule:evenodd;fill:#3E5A98;}
	.st9{fill-rule:evenodd;clip-rule:evenodd;fill:#020202;}
	.st10{fill-rule:evenodd;clip-rule:evenodd;fill:#EE4342;}
	.st11{fill:#FFFFFF;}
</style>
<circle class="st6" cx="500" cy="500" r="377.3"/>
<g>
	<g>
		<path class="st2" d="M408.8,409.2H247.2c-5.5,0-10,4.5-10,10v161.6c0,5.5,4.5,10,10,10h87v-70.4h-23.7V493h23.6v-20.2
			c0-23.5,14.4-36.2,35.3-36.2c7.1,0,14.1,0.3,21.2,1.1v24.5h-14.5c-11.4,0-13.6,5.4-13.6,13.3v17.5h27.1l-3.5,27.4h-23.6v70.3h46.3
			c5.5,0,10-4.5,10-10V419.2C418.8,413.7,414.3,409.2,408.8,409.2z"/>
		<path class="st0" d="M752.8,409.2H447.9c-5.5,0-10,4.5-10,10v161.6c0,5.5,4.5,10,10,10h304.9c5.5,0,10-4.5,10-10V419.2
			C762.8,413.7,758.4,409.2,752.8,409.2z M537.8,526.4v12h-49.1v-77h13.8v64.9L537.8,526.4L537.8,526.4z M566.4,538.5h-13.8v-77
			h13.8V538.5z M622.4,538.5L622.4,538.5h-15.8l-26.9-77h15.1l19.4,60.9h0.9l19.2-60.9h14.7L622.4,538.5L622.4,538.5z M712,473.4
			h-36v20.4h34.1V505H676v21.5h36l0,0v11.9h-49.8v-77H712V473.4z"/>
	</g>
</g>
</svg>
