<svg xmlns="http://www.w3.org/2000/svg" viewBox="0 0 64 64"><title>Editor_64x</title><g id="Color"><path d="M35.5,46H21.8833L16.541,53.35547,12,56.59375V57H35.5a5.5,5.5,0,0,0,0-11Z" fill="#103f91"/><path d="M45.5,31H32.77832L24.78857,42H45.5a5.5,5.5,0,0,0,0-11Z" fill="#185abd"/><path d="M55.5,16H43.67334L35.68359,27H55.5a5.5,5.5,0,0,0,0-11Z" fill="#185abd"/><polygon points="16.541 53.355 12 56.594 12 57 17.458 57 19.038 55.874 26.209 46 21.883 46 16.541 53.355" opacity="0.1"/><polygon points="43.673 16 35.684 27 40.009 27 47.999 16 43.673 16" opacity="0.1"/><polygon points="24.789 42 29.114 42 37.104 31 32.778 31 24.789 42" opacity="0.1"/><polygon points="16.541 53.355 12 56.594 12 57 15.736 57 18.324 55.154 24.973 46 21.883 46 16.541 53.355" opacity="0.1"/><polygon points="24.789 42 27.878 42 35.868 31 32.778 31 24.789 42" opacity="0.1"/><polygon points="43.673 16 35.684 27 38.773 27 46.763 16 43.673 16" opacity="0.1"/><rect width="64" height="64" fill="none"/><polygon points="16.541 53.355 12 56.594 12 57 14.014 57 17.611 54.435 23.737 46 21.883 46 16.541 53.355" opacity="0.1"/><polygon points="43.673 16 35.684 27 37.538 27 45.527 16 43.673 16" opacity="0.1"/><polygon points="24.789 42 26.643 42 34.632 31 32.778 31 24.789 42" opacity="0.1"/><path d="M5.47661,58.13106,27.45877,33.02418,44.72667,11.221l-9.3894-5.87132-1.17459.68361L5.34283,45.54187l-3.04245,10.124a.96939.96939,0,0,0,.35115,1.04628l.00159.00107Z" fill="#41a5ee"/><path d="M7.18773,59.92938a.959.959,0,0,0,1.04118-.03193l8.66845-6.18231,28.68983-39.5L40.50175,8.5325,4.8157,57.9656Z" fill="#2b7cd3"/><path d="M45.58719,14.21517,48.75,9.83333c.26683-.37718.13268-.71307-.19381-1.16162-2.36884-3.2545-9.43-7.3895-10.35736-7.30448a1.186,1.186,0,0,0-.91309.35676l-3.17154,4.3757Z" fill="#103f91"/><path d="M6.48911,55.6529l-3.836,1.06L1.34006,61.06c-.06339.37216.33435.90364.63114,1.14789s1.246.61521,1.62557.38788l3.591-2.6664C7.20343,59.93831,6.48911,55.6529,6.48911,55.6529Z" fill="#103f91"/></g></svg>