<?xml version="1.0" encoding="utf-8"?>
<!-- Generator: Adobe Illustrator 28.4.1, SVG Export Plug-In . SVG Version: 6.00 Build 0)  -->
<svg version="1.0" id="katman_1" xmlns="http://www.w3.org/2000/svg" xmlns:xlink="http://www.w3.org/1999/xlink" x="0px" y="0px"
	 viewBox="0 0 841.89 595.28" style="enable-background:new 0 0 841.89 595.28;" xml:space="preserve">
<style type="text/css">
	.st0{fill:url(#SVGID_1_);}
	.st1{fill:url(#SVGID_00000083807897713820783690000003654389528810902462_);}
	.st2{fill:url(#SVGID_00000131369693024823790250000003374315605068261766_);}
	.st3{fill:url(#SVGID_00000041995016588481406740000015647892031852925369_);}
	.st4{fill:url(#SVGID_00000115508438072959259130000001552671787156646789_);}
	.st5{fill:url(#SVGID_00000110458067195937677390000015477051352957169591_);}
	.st6{fill:url(#SVGID_00000152984985371064970130000006773356956990840490_);}
	.st7{fill:url(#SVGID_00000096773000882550277830000003112182397586013112_);}
</style>
<radialGradient id="SVGID_1_" cx="2.4634" cy="604.8802" r="16.4624" gradientTransform="matrix(-7.8001 20.8313 36.3341 13.605 -21609.7754 -8129.9639)" gradientUnits="userSpaceOnUse">
	<stop  offset="0.0644" style="stop-color:#AE7FE2"/>
	<stop  offset="1" style="stop-color:#0078D4"/>
</radialGradient>
<path class="st0" d="M378.05,67.21l-2.47,1.49c-3.92,2.37-7.62,5.03-11.07,7.92l7.11-5H432l10.97,83.1L388.1,209.6l-54.87,38.14
	v43.98c0,30.72,16.06,59.2,42.33,75.11l57.77,34.97L311.28,473h-23.54l-43.87-26.56c-26.28-15.91-42.33-44.39-42.33-75.11v-147.9
	c0-30.73,16.07-59.22,42.36-75.13l131.7-79.66C376.4,68.15,377.22,67.67,378.05,67.21z"/>
<linearGradient id="SVGID_00000067950936858987356550000003929051468900782465_" gradientUnits="userSpaceOnUse" x1="590.2775" y1="-30.0439" x2="511.9064" y2="105.5045" gradientTransform="matrix(0.6667 0 0 -0.6667 25.2782 389.6955)">
	<stop  offset="0" style="stop-color:#114A8B"/>
	<stop  offset="1" style="stop-color:#0078D4;stop-opacity:0"/>
</linearGradient>
<path style="fill:url(#SVGID_00000067950936858987356550000003929051468900782465_);" d="M378.05,67.21l-2.47,1.49
	c-3.92,2.37-7.62,5.03-11.07,7.92l7.11-5H432l10.97,83.1L388.1,209.6l-54.87,38.14v43.98c0,30.72,16.06,59.2,42.33,75.11
	l57.77,34.97L311.28,473h-23.54l-43.87-26.56c-26.28-15.91-42.33-44.39-42.33-75.11v-147.9c0-30.73,16.07-59.22,42.36-75.13
	l131.7-79.66C376.4,68.15,377.22,67.67,378.05,67.21z"/>
<radialGradient id="SVGID_00000095311974421210165270000014223275489557379720_" cx="9.5055" cy="563.3296" r="16.4624" gradientTransform="matrix(20.4799 -3.0122 -1.9898 -13.5283 1198.3204 8082.4878)" gradientUnits="userSpaceOnUse">
	<stop  offset="0.1339" style="stop-color:#D59DFF"/>
	<stop  offset="1" style="stop-color:#5E438F"/>
</radialGradient>
<path style="fill:url(#SVGID_00000095311974421210165270000014223275489557379720_);" d="M508.83,242.52v49.17
	c0,30.72-16.06,59.2-42.33,75.11l-131.7,79.72c-26.94,16.31-60.46,16.9-87.88,1.77l128.65,77.87c27.95,16.92,62.98,16.92,90.93,0
	l131.7-79.72c26.28-15.91,42.33-44.39,42.33-75.11v-35.52l-10.97-16.46L508.83,242.52z"/>
<linearGradient id="SVGID_00000111153148005843603520000007192898815733853602_" gradientUnits="userSpaceOnUse" x1="782.8268" y1="171.6184" x2="698.8453" y2="51.199" gradientTransform="matrix(0.6667 0 0 -0.6667 25.2782 389.6955)">
	<stop  offset="0" style="stop-color:#493474"/>
	<stop  offset="1" style="stop-color:#8C66BA;stop-opacity:0"/>
</linearGradient>
<path style="fill:url(#SVGID_00000111153148005843603520000007192898815733853602_);" d="M508.83,242.52v49.17
	c0,30.72-16.06,59.2-42.33,75.11l-131.7,79.72c-26.94,16.31-60.46,16.9-87.88,1.77l128.65,77.87c27.95,16.92,62.98,16.92,90.93,0
	l131.7-79.72c26.28-15.91,42.33-44.39,42.33-75.11v-35.52l-10.97-16.46L508.83,242.52z"/>
<radialGradient id="SVGID_00000078010050129572800480000003985155928576269726_" cx="-36.0297" cy="602.0353" r="16.4624" gradientTransform="matrix(-16.1055 -4.0837 -6.8745 27.1122 4166.6401 -16144.7324)" gradientUnits="userSpaceOnUse">
	<stop  offset="0.0585" style="stop-color:#50E6FF"/>
	<stop  offset="1" style="stop-color:#436DCD"/>
</radialGradient>
<path style="fill:url(#SVGID_00000078010050129572800480000003985155928576269726_);" d="M598.17,148.31l-131.7-79.66
	c-27.07-16.38-60.78-16.88-88.27-1.52l-2.62,1.58c-26.29,15.9-42.36,44.4-42.36,75.13v104.09l42.36-25.62
	c27.94-16.9,62.95-16.9,90.88,0l131.7,79.66c25.47,15.41,41.34,42.63,42.31,72.25c0.03-0.96,0.05-1.92,0.05-2.88v-147.9
	C640.53,192.7,624.46,164.21,598.17,148.31z"/>
<linearGradient id="SVGID_00000049184470005093439590000009623972490927832454_" gradientUnits="userSpaceOnUse" x1="477.9883" y1="261.9094" x2="601.6376" y2="261.9094" gradientTransform="matrix(0.6667 0 0 -0.6667 25.2782 389.6955)">
	<stop  offset="0" style="stop-color:#2D3F80"/>
	<stop  offset="1" style="stop-color:#436DCD;stop-opacity:0"/>
</linearGradient>
<path style="fill:url(#SVGID_00000049184470005093439590000009623972490927832454_);" d="M598.17,148.31l-131.7-79.66
	c-27.07-16.38-60.78-16.88-88.27-1.52l-2.62,1.58c-26.29,15.9-42.36,44.4-42.36,75.13v104.09l42.36-25.62
	c27.94-16.9,62.95-16.9,90.88,0l131.7,79.66c25.47,15.41,41.34,42.63,42.31,72.25c0.03-0.96,0.05-1.92,0.05-2.88v-147.9
	C640.53,192.7,624.46,164.21,598.17,148.31z"/>
<radialGradient id="SVGID_00000052791426553997326350000016467488112007851921_" cx="-13.0365" cy="607.3179" r="0" gradientTransform="matrix(-16.1055 -4.0837 -6.8745 27.1122 4166.6401 -16144.7324)" gradientUnits="userSpaceOnUse">
	<stop  offset="0.0585" style="stop-color:#50E6FF"/>
	<stop  offset="1" style="stop-color:#436DCD"/>
</radialGradient>
<path style="fill:url(#SVGID_00000052791426553997326350000016467488112007851921_);" d="M201.58,374.21L201.58,374.21z"/>
<linearGradient id="SVGID_00000005956455273877023700000008401858802321844116_" gradientUnits="userSpaceOnUse" x1="264.4455" y1="23.2342" x2="264.4455" y2="23.2342" gradientTransform="matrix(0.6667 0 0 -0.6667 25.2782 389.6955)">
	<stop  offset="0" style="stop-color:#2D3F80"/>
	<stop  offset="1" style="stop-color:#436DCD;stop-opacity:0"/>
</linearGradient>
<path style="fill:url(#SVGID_00000005956455273877023700000008401858802321844116_);" d="M201.58,374.21L201.58,374.21z"/>
</svg>
