<svg width="105" height="118" viewBox="0 0 105 118" fill="none" xmlns="http://www.w3.org/2000/svg">
<path fill-rule="evenodd" clip-rule="evenodd" d="M99.8852 26.5627L73.3207 11.3251C71.7416 10.4195 69.7725 11.5584 69.7725 13.3777V37.9239C69.7725 38.7717 70.226 39.5543 70.9615 39.9761L76.1079 42.9282C77.5793 43.7718 78.4866 45.3375 78.4866 47.0319L78.4881 71.5621C78.4881 73.2573 77.5812 74.823 76.1095 75.6665L54.6781 87.9604C53.217 88.7987 51.4202 88.7987 49.9592 87.96L28.537 75.6681C27.0656 74.8245 26.159 73.2592 26.159 71.5644L26.1571 47.0361C26.1571 45.3398 27.0656 43.7733 28.5385 42.9298L33.699 39.9746C34.4356 39.5528 34.8899 38.7694 34.8899 37.9216V13.3625C34.8899 11.5428 32.9205 10.4042 31.3409 11.3102L4.75584 26.565C1.81355 28.2533 0 31.3839 0 34.7734L0.00304868 83.8263C0.00342975 87.215 1.81736 90.3457 4.75927 92.0336L47.5954 116.613C50.5175 118.289 54.1114 118.289 57.0339 116.613L99.8883 92.031C102.831 90.3427 104.646 87.212 104.646 83.8217L104.642 34.7708C104.642 31.3813 102.828 28.2506 99.8852 26.5627Z" fill="#DF5252"/>
<path fill-rule="evenodd" clip-rule="evenodd" d="M68.5821 48.6087L63.4273 45.652C61.9563 44.8081 61.049 43.2427 61.049 41.548V7.0201C61.049 5.3242 60.1405 3.75811 58.6676 2.91453L54.6732 0.626685C53.2121 -0.209656 51.4169 -0.208894 49.957 0.628969L45.9835 2.90882C44.5129 3.75278 43.6059 5.31811 43.6059 7.01249V41.5415C43.6059 43.2363 42.6986 44.8016 41.2276 45.6455L36.0621 48.6095C35.3267 49.0316 34.8732 49.8143 34.8732 50.6617L34.8743 67.9359C34.8743 68.7829 35.3278 69.5656 36.0633 69.9877L51.1402 78.6385C51.8707 79.058 52.7693 79.058 53.4998 78.6385L68.5832 69.987C69.3187 69.5644 69.7722 68.7821 69.7722 67.9344L69.7711 50.6605C69.7711 49.8135 69.3176 49.0309 68.5821 48.6087Z" fill="#DF5252"/>
</svg>
