<?xml version="1.0" encoding="UTF-8" standalone="no"?>
<svg height="48" viewBox="0 0 48 48" width="48" xmlns="http://www.w3.org/2000/svg" xmlns:xlink="http://www.w3.org/1999/xlink">
  <defs>
    <linearGradient id="a" gradientUnits="userSpaceOnUse" x1="24" x2="24" y1="43.9998" y2="3.9998">
      <stop offset="0" stop-color="#12375a"/>
      <stop offset="1" stop-color="#537596"/>
    </linearGradient>
    <linearGradient id="b" gradientUnits="userSpaceOnUse" x1="16" x2="40" y1="11" y2="35">
      <stop offset="0"/>
      <stop offset="1" stop-opacity="0"/>
    </linearGradient>
  </defs>
  <circle cx="24" cy="24" fill="url(#a)" r="20"/>
  <path d="m37.5 28s-2.5 10-13.5 10c-10 0-14-9-14-13l3 2" fill="none" stroke="#f4f5f5" stroke-linecap="round" stroke-linejoin="round" stroke-width="2"/>
  <path d="m24.398438 9.5566406-6.421876 1.5566404-4.748046 3.728516-3.6250004 5.664062 21.9824224 21.984375a20 20 0 0 0 12.414062-18.490234 20 20 0 0 0 -.046875-1.298828l-9.501953-9.501953z" fill="url(#b)" opacity=".2"/>
  <path d="m10.5 20s2.5-10 13.5-10c10 0 14 9 14 13l-3-2" fill="none" stroke="#f4f5f5" stroke-linecap="round" stroke-linejoin="round" stroke-width="2"/>
  <path d="m43.978516 23.417969a20 20 0 0 1 -19.978516 19.582031 20 20 0 0 1 -19.9785156-19.417969 20 20 0 0 0 -.0214844.417969 20 20 0 0 0 20 20 20 20 0 0 0 20-20 20 20 0 0 0 -.021484-.582031z" opacity=".15"/>
</svg>
