<?xml version="1.0" ?><!DOCTYPE svg  PUBLIC '-//W3C//DTD SVG 1.1//EN'  'http://www.w3.org/Graphics/SVG/1.1/DTD/svg11.dtd'><svg enable-background="new 0 0 512 512" height="512px" id="Layer_1" version="1.1" viewBox="0 0 512 512" width="512px" xml:space="preserve" xmlns="http://www.w3.org/2000/svg" xmlns:xlink="http://www.w3.org/1999/xlink"><path d="M513,432c0,44.184-35.816,80-80,80H81c-44.183,0-80-35.816-80-80V80C1,35.818,36.818,0,81,0h352  c44.184,0,80,35.818,80,80V432z" fill="#1AB7EA"/><path d="M392.038,144.188L371,198l-20.475,23.454L321,170l-42.371,30.435l47.943,48.458l-59.429,68.077L257,322.087  L197.593,170l-76.703,46.5l124.28,125.64l-23.53,26.954L362.999,512H415h17c43.27,0,78.491-34.355,79.931-77.274  c0.031-0.907,0.069-1.812,0.069-2.726V318.193v-53L392.038,144.188z" fill="#139FBF"/><path d="M363.311,135.047c29.021,0.759,43.535,17.242,43.689,49.465c0,2.123-0.083,4.314-0.196,6.577  c-1.278,27.334-21.613,64.56-61.086,111.679c-40.713,49.353-75.241,74.059-103.599,74.185c-17.651,0-32.293-15.106-44.056-45.334  l-12.338-41.442l-12.212-41.399c-8.993-29.988-18.606-44.941-28.864-44.941c-2.249,0-10.034,4.37-23.399,13.084L107,200.068  l22.105-18.353l21.739-18.184c19.478-15.599,34.29-24.031,44.436-25.281c1.363-0.141,2.712-0.183,4.089-0.183  c20.854,0,33.881,14.979,38.983,44.955c2.852,17.088,5.213,30.987,7.125,41.666c1.854,10.709,3.414,18.171,4.65,22.415  c6.887,28.345,14.321,42.595,22.303,42.706c6.128,0,15.571-9.247,28.317-27.713c12.465-18.985,19.167-33.038,20.039-42.199  c0.267-1.856,0.365-3.599,0.365-5.199c0-12.396-6.816-18.564-20.404-18.564c-6.887,0-14.236,1.461-22.119,4.3  c14.109-43.479,41.216-65.247,81.309-65.388C361.061,135.047,362.172,135.047,363.311,135.047z" fill="#FFFFFF"/><polygon fill="#07738C" points="-271.566,783.777 -272.004,784.215 -270.783,784.562 "/></svg>