<?xml version="1.0" encoding="utf-8"?>
<!-- Generator: Adobe Illustrator 27.5.0, SVG Export Plug-In . SVG Version: 6.00 Build 0)  -->
<svg version="1.1" id="katman_1" xmlns="http://www.w3.org/2000/svg" xmlns:xlink="http://www.w3.org/1999/xlink" x="0px" y="0px"
	 viewBox="0 0 2734.67 1912.44" style="enable-background:new 0 0 2734.67 1912.44;" xml:space="preserve">
<style type="text/css">
	.st0{fill:#0B0F19;}
	.st1{fill:url(#SVGID_1_);}
	.st2{fill:url(#SVGID_00000183232802396863046490000000087673675768939164_);}
	.st3{fill:url(#SVGID_00000124120303381580002040000015191718803802417835_);}
	.st4{fill:url(#SVGID_00000049194140403557511620000006121774974768037010_);}
	.st5{fill:url(#SVGID_00000072274678324459045460000010656409086382352540_);}
	.st6{fill:none;}
	.st7{opacity:0.505;}
	.st8{fill:url(#SVGID_00000119824437410705804770000015416677140475183292_);}
	.st9{fill-opacity:0.496;}
	.st10{opacity:0.544;}
	.st11{fill:url(#SVGID_00000039105360888836389560000007986716416818997917_);}
	.st12{fill-opacity:0.5;}
	.st13{opacity:0.562;}
	.st14{fill:url(#SVGID_00000103264170541203868770000017592562684944422310_);}
	.st15{opacity:0.584;}
	.st16{fill:url(#SVGID_00000047034433306145207730000011795137225790467742_);}
	.st17{fill-opacity:0.503;}
	.st18{opacity:0.18;}
	.st19{fill:url(#SVGID_00000115506912677242289810000012227741772304992931_);}
	.st20{fill-opacity:0.773;}
	.st21{fill:#FFFFFF;}
</style>
<g>
	<path class="st0" d="M1090.31,1011.74H1033v112.72h-62.19V802.03h119.34c26.76,0,48.44,4.46,65.02,13.39
		c16.59,8.92,28.74,21.28,36.45,37.08s11.57,33.98,11.57,54.55c0,31.38-8.98,56.68-26.93,75.89S1129.67,1011.74,1090.31,1011.74
		L1090.31,1011.74z M1033,854.3v105.8h57.31c19,0,32.31-5.12,39.91-15.35c7.61-10.23,11.42-22.81,11.42-37.71
		c0-14.91-3.83-27.42-11.5-37.55c-7.66-10.13-20.99-15.19-39.99-15.19H1033z M1255.47,862.48c-9.97,0-18.32-3.18-25.03-9.52
		c-6.72-6.35-10.08-13.99-10.08-22.91c0-8.61,3.36-16.17,10.08-22.67c6.72-6.51,15.06-9.76,25.03-9.76c9.98,0,18.21,3.25,24.72,9.76
		c6.51,6.5,9.76,14.06,9.76,22.67c0,8.92-3.25,16.56-9.76,22.91C1273.68,859.31,1265.44,862.48,1255.47,862.48L1255.47,862.48z
		 M1285.85,882.64v241.83h-61.09V882.64H1285.85z M1380.16,882.64l42.03,78.72l42.99-78.72h63.45l-68.33,120.92l70.07,120.92h-63.45
		l-44.72-76.67l-44.24,76.68h-63.77l69.59-120.92l-67.39-120.92L1380.16,882.64z M1653.01,1129.04c-24.25,0-45.11-4.96-62.58-14.88
		c-17.47-9.92-30.94-24.01-40.39-42.27c-9.44-18.26-14.17-39.99-14.17-65.18c0-24.56,4.51-46.42,13.54-65.57
		c9.02-19.16,22.09-34.22,39.2-45.19c17.11-10.97,37.73-16.45,61.88-16.45c20.47,0,38.86,4.3,55.18,12.91
		c16.32,8.6,29.23,21.52,38.73,38.73s14.25,38.73,14.25,64.55v25.66h-163.74c1.99,17.95,7.74,32.04,17.24,42.27
		s22.96,15.35,40.38,15.35c14.59,0,25.56-3.33,32.91-10c7.35-6.66,12.65-14.51,15.9-23.54l54.79,14.8
		c-2.94,11.12-8.54,21.94-16.77,32.44c-8.24,10.49-19.47,19.18-33.69,26.06C1691.45,1125.6,1673.9,1129.04,1653.01,1129.04
		L1653.01,1129.04z M1650.02,929.08c-14.06,0-25.66,4.41-34.79,13.22s-15.32,21.15-18.57,37h104.07c0-14.27-4.43-26.22-13.31-35.82
		C1678.54,933.89,1666.08,929.08,1650.02,929.08L1650.02,929.08z M1849.97,802.03v322.44h-61.08V802.03H1849.97z M1906.8,1124.47
		V927.98h-32.59v-45.34h32.6v-9.76c0-25.4,7.26-44.29,21.8-56.68c14.54-12.39,32.51-18.58,53.92-18.58
		c10.39,0,19.47,0.81,27.24,2.44s13.59,3.07,17.47,4.33l-11.65,46.6c-3.08-0.93-6.21-1.69-9.36-2.28
		c-3.76-0.71-7.59-1.05-11.41-1.02c-17.95,0-26.93,9.34-26.93,28.02v6.93h47.7v45.34h-47.7v196.49H1906.8z M2142.18,1129.04
		c-24.25,0-45.11-4.96-62.58-14.88c-17.48-9.92-30.94-24.01-40.38-42.27c-9.45-18.26-14.17-39.99-14.17-65.18
		c0-24.56,4.52-46.42,13.54-65.57c9.03-19.16,22.09-34.22,39.2-45.19c17.11-10.97,37.73-16.45,61.88-16.45
		c20.46,0,38.86,4.3,55.18,12.91c16.32,8.6,29.23,21.52,38.73,38.73c9.49,17.21,14.24,38.73,14.24,64.55v25.66h-163.74
		c2,17.95,7.75,32.04,17.24,42.27c9.5,10.23,22.96,15.35,40.39,15.35c14.59,0,25.56-3.33,32.91-10s12.65-14.51,15.9-23.54
		l54.79,14.8c-2.94,11.12-8.53,21.94-16.77,32.44c-8.24,10.49-19.47,19.18-33.69,26.06
		C2180.63,1125.6,2163.07,1129.04,2142.18,1129.04L2142.18,1129.04z M2139.19,929.08c-14.07,0-25.66,4.41-34.79,13.22
		s-15.33,21.15-18.57,37h104.06c0-14.27-4.43-26.22-13.3-35.82S2155.25,929.08,2139.19,929.08L2139.19,929.08z M2488.71,1124.47
		h-60.3v-28.65h-3.31c-4.09,8.4-11.05,15.98-20.86,22.75c-9.81,6.77-22.69,10.16-38.65,10.16c-18.06,0-34.35-4.8-48.89-14.4
		c-14.54-9.6-26.08-23.7-34.63-42.27c-8.55-18.58-12.83-41.36-12.83-68.33c0-27.19,4.38-50.02,13.14-68.49
		c8.76-18.47,20.47-32.38,35.12-41.72c14.64-9.34,30.73-14.01,48.25-14.01c16.17,0,29.08,3.44,38.73,10.31
		c9.65,6.87,16.53,14.46,20.62,22.75h2.52V802.03h61.09L2488.71,1124.47z M2327.49,1003.55c0,22.57,4.54,40.78,13.62,54.64
		c9.08,13.85,22.59,20.78,40.54,20.78c12.49,0,22.54-3.33,30.15-10c7.61-6.66,13.12-15.72,16.53-27.16
		c3.41-11.43,5.12-24.19,5.12-38.26c0-21.31-3.97-39.04-11.89-53.21c-7.92-14.17-21.23-21.25-39.91-21.25
		c-18.06,0-31.59,6.79-40.62,20.39C2332,963.07,2327.49,981.09,2327.49,1003.55L2327.49,1003.55z"/>
	
		<linearGradient id="SVGID_1_" gradientUnits="userSpaceOnUse" x1="573.3295" y1="1550.569" x2="572.3295" y2="1550.548" gradientTransform="matrix(216.0531 181.2901 259.6767 -309.4706 -526032.5625 376923.8438)">
		<stop  offset="0" style="stop-color:#FF5C34"/>
		<stop  offset="1" style="stop-color:#EB0256"/>
	</linearGradient>
	<path class="st1" d="M526.76,956.22c-45.95-62.87-133.84-77.28-196.3-32.18c-62.45,45.1-75.83,132.63-29.87,195.5l3.48,4.76
		c-74.95-98.02-78.64-235.53-3.92-336.29l1.33-1.77c46.29-61.51,134.25-73.32,196.46-26.38
		C560.15,806.8,573.05,894.72,526.76,956.22L526.76,956.22z"/>
	
		<linearGradient id="SVGID_00000140718705679514644020000008554708999313111434_" gradientUnits="userSpaceOnUse" x1="573.0576" y1="1549.5696" x2="573.2206" y2="1550.4165" gradientTransform="matrix(321.6301 269.8797 181.8702 -216.7444 -465790.8125 182367.4062)">
		<stop  offset="0" style="stop-color:#A63FDB"/>
		<stop  offset="1" style="stop-color:#FF257E"/>
	</linearGradient>
	<path style="fill:url(#SVGID_00000140718705679514644020000008554708999313111434_);" d="M526.76,956.22
		c-73.16,24.75-111.65,104.24-85.96,177.55c25.69,73.31,105.83,112.68,178.99,87.94l4.84-1.64c-90.98,32.55-196.98,16.9-277.06-50.3
		c-16.47-13.82-30.98-29.09-43.5-45.47l-3.48-4.76c-45.95-62.87-32.59-150.4,29.87-195.5C392.92,878.94,480.8,893.35,526.76,956.22
		L526.76,956.22z"/>
	
		<linearGradient id="SVGID_00000067927551784080693990000012852741509706167193_" gradientUnits="userSpaceOnUse" x1="572.5527" y1="1550.5837" x2="573.3486" y2="1550.4792" gradientTransform="matrix(231.6519 194.379 251.7987 -300.082 -522515.8125 354977.5938)">
		<stop  offset="0" style="stop-color:#00FFF0"/>
		<stop  offset="1" style="stop-color:#0087FF"/>
	</linearGradient>
	<path style="fill:url(#SVGID_00000067927551784080693990000012852741509706167193_);" d="M526.76,956.22
		c0.47,77.38,63.71,140.48,141.25,140.95c77.54,0.47,140.01-61.87,139.54-139.24l-0.01-1.77c0.83,64.19-20.32,128.72-64.59,181.48
		c-32.59,38.84-73.64,66.45-118.32,82.44l-4.85,1.64c-73.16,24.74-153.3-14.62-178.99-87.93
		C415.12,1060.46,453.6,980.97,526.76,956.22z"/>
	
		<linearGradient id="SVGID_00000036969242184195124110000004616519710759622531_" gradientUnits="userSpaceOnUse" x1="573.2919" y1="1550.7074" x2="572.7911" y2="1550.0626" gradientTransform="matrix(276.433 231.9549 211.1954 -251.6929 -485171.9062 258189.375)">
		<stop  offset="0" style="stop-color:#17C934"/>
		<stop  offset="1" style="stop-color:#03FF6E"/>
	</linearGradient>
	<path style="fill:url(#SVGID_00000036969242184195124110000004616519710759622531_);" d="M526.76,956.22
		c73.89,24.36,152.85-15.43,176.36-88.88c23.51-73.43-17.33-152.71-91.22-177.07l-6.05-2c35.6,10.84,69.71,28.91,100.09,54.4
		c65.99,55.37,100.57,134.16,101.6,213.48l0.01,1.77c0.47,77.38-62,139.72-139.55,139.25C590.46,1096.7,527.23,1033.6,526.76,956.22
		L526.76,956.22z"/>
	
		<linearGradient id="SVGID_00000018951152917844511820000004871452505016832401_" gradientUnits="userSpaceOnUse" x1="573.1103" y1="1549.4644" x2="572.9949" y2="1550.5835" gradientTransform="matrix(283.8319 238.1633 183.4836 -218.6672 -446536.2188 203264.7812)">
		<stop  offset="0" style="stop-color:#FFB000"/>
		<stop  offset="1" style="stop-color:#FF7725"/>
	</linearGradient>
	<path style="fill:url(#SVGID_00000018951152917844511820000004871452505016832401_);" d="M526.76,956.22
		c46.29-61.51,33.38-149.43-28.83-196.37s-150.16-35.12-196.45,26.38l-1.33,1.77c3.34-4.5,6.81-8.9,10.41-13.19
		c73.79-87.93,190.97-118.3,295.3-86.54l6.05,2c73.89,24.36,114.73,103.64,91.21,177.09C679.61,940.79,600.65,980.58,526.76,956.22
		L526.76,956.22z"/>
	<path class="st6" d="M526.76,956.23c46.29-61.51,33.38-149.43-28.83-196.37s-150.16-35.13-196.45,26.39l-1.32,1.76
		c3.34-4.5,6.81-8.9,10.41-13.19c73.78-87.93,190.96-118.3,295.3-86.54l6.05,2c73.88,24.36,114.72,103.63,91.21,177.08
		C679.61,940.79,600.65,980.58,526.76,956.23z"/>
	<g class="st7">
		
			<linearGradient id="SVGID_00000024689693092949571860000005891486689090487216_" gradientUnits="userSpaceOnUse" x1="572.5616" y1="1549.7024" x2="572.3672" y2="1550.2988" gradientTransform="matrix(150.2373 126.0641 172.6915 -205.8057 -353056.6875 247683.2031)">
			<stop  offset="0" style="stop-color:#FFB000"/>
			<stop  offset="1" style="stop-color:#FF7725"/>
		</linearGradient>
		<path style="fill:url(#SVGID_00000024689693092949571860000005891486689090487216_);" d="M609.75,689.56l2.16,0.71
			c73.89,24.36,114.73,103.64,91.21,177.08c-23.51,73.44-102.47,113.24-176.36,88.88c6.71-8.9,12.32-18.59,16.7-28.84
			c43.18,8.84,89.47-5.43,119.52-41.24c43.86-52.27,36.52-130.63-16.4-175.04C635.27,701.63,622.8,694.46,609.75,689.56
			L609.75,689.56z"/>
		<path class="st9" d="M609.75,689.56l2.16,0.71c73.89,24.36,114.73,103.63,91.22,177.08c-23.52,73.44-102.48,113.23-176.36,88.88
			c6.71-8.91,12.32-18.59,16.7-28.84c43.19,8.85,89.47-5.42,119.52-41.24c43.86-52.26,36.52-130.63-16.4-175.03
			C635.61,701.89,623.16,694.6,609.75,689.56z"/>
	</g>
	<g class="st10">
		
			<linearGradient id="SVGID_00000159429969130681619920000016067860172611743935_" gradientUnits="userSpaceOnUse" x1="574.351" y1="1550.2216" x2="576.3788" y2="1550.1553" gradientTransform="matrix(-73.4718 181.8491 249.0921 100.6398 -343186.9688 -259694.8125)">
			<stop  offset="0" style="stop-color:#9EE85D"/>
			<stop  offset="1" style="stop-color:#0ED061"/>
		</linearGradient>
		<path style="fill:url(#SVGID_00000159429969130681619920000016067860172611743935_);" d="M807.16,953.86l-0.01,2.27
			c-0.33,77.8-63.12,141.14-140.23,141.48c-77.11,0.33-139.36-62.47-139.03-140.27c10.54,3.63,21.49,5.97,32.59,6.97
			c4.94,43.8,32.81,83.41,76.16,100.92c63.26,25.56,135.52-5.64,161.4-69.69C803.57,981.86,806.54,967.78,807.16,953.86z"/>
		<path class="st12" d="M807.16,953.85l-0.01,2.28c-0.33,77.8-63.11,141.14-140.22,141.47c-77.12,0.33-139.36-62.47-139.02-140.27
			c10.54,3.63,21.48,5.97,32.59,6.97c4.94,43.8,32.81,83.41,76.15,100.93c63.26,25.56,135.53-5.64,161.4-69.69
			C803.43,982.26,806.51,968.16,807.16,953.85L807.16,953.85z"/>
	</g>
	<g class="st13">
		
			<linearGradient id="SVGID_00000106116978456830361510000009321045584767370164_" gradientUnits="userSpaceOnUse" x1="576.6677" y1="1552.3301" x2="576.2126" y2="1552.9741" gradientTransform="matrix(-195.8596 -10.2646 -14.0606 268.2921 135257.2656 -409510.5312)">
			<stop  offset="0" style="stop-color:#21EFE3"/>
			<stop  offset="1" style="stop-color:#2598FF"/>
		</linearGradient>
		<path style="fill:url(#SVGID_00000106116978456830361510000009321045584767370164_);" d="M621.69,1219.84l-2.16,0.73
			c-73.67,25.01-154-13.72-179.42-86.53c-25.42-72.8,13.7-152.1,87.37-177.12c0,11.15,1.35,22.26,4.02,33.08
			c-39.81,18.93-68.19,58.18-70.63,104.87c-3.57,68.14,49.46,126.31,118.44,129.92C594.05,1225.56,608.32,1223.78,621.69,1219.84z"
			/>
		<path d="M621.69,1219.84l-2.15,0.73c-73.67,25.02-154-13.72-179.42-86.53c-25.42-72.8,13.7-152.1,87.36-177.11
			c0.01,11.4,1.4,22.48,4.02,33.08c-39.81,18.93-68.19,58.18-70.63,104.86c-3.57,68.14,49.45,126.31,118.44,129.92
			C594.04,1225.56,608.32,1223.78,621.69,1219.84L621.69,1219.84z"/>
	</g>
	<g class="st15">
		
			<linearGradient id="SVGID_00000102506162012314398340000015813805265637408172_" gradientUnits="userSpaceOnUse" x1="574.0432" y1="1553.777" x2="572.1467" y2="1553.6912" gradientTransform="matrix(-44.1188 -191.0994 -261.7689 60.4341 432425 16700.1367)">
			<stop  offset="0" style="stop-color:#A63FDB"/>
			<stop  offset="1" style="stop-color:#FF257E"/>
		</linearGradient>
		<path style="fill:url(#SVGID_00000102506162012314398340000015813805265637408172_);" d="M299.25,1118.59l-1.3-1.87
			c-44.35-63.92-29.25-151.82,33.72-196.31c62.98-44.5,149.98-28.76,194.34,35.16c-10.72,3.07-21.02,7.43-30.7,12.98
			c-29.17-33.05-74.72-49.51-120.27-38.99c-66.48,15.35-107.78,82.35-92.24,149.66C286.13,1093.59,291.78,1106.82,299.25,1118.59
			L299.25,1118.59z"/>
		<path class="st17" d="M299.25,1118.6l-1.29-1.87c-44.36-63.92-29.26-151.81,33.72-196.32c62.98-44.5,149.98-28.76,194.33,35.16
			c-10.72,3.07-21.02,7.43-30.69,12.98c-29.17-33.05-74.72-49.51-120.27-39c-66.49,15.35-107.78,82.35-92.24,149.66
			C286.02,1093.18,291.58,1106.49,299.25,1118.6L299.25,1118.6z"/>
	</g>
	<g class="st18">
		
			<linearGradient id="SVGID_00000127722378897472213740000003503457857099311771_" gradientUnits="userSpaceOnUse" x1="571.6021" y1="1552.1632" x2="570.6021" y2="1552.1403" gradientTransform="matrix(168.1123 -101.012 -138.3673 -230.2819 119205.4453 415965.25)">
			<stop  offset="0" style="stop-color:#FF5C34"/>
			<stop  offset="1" style="stop-color:#EB0256"/>
		</linearGradient>
		<path style="fill:url(#SVGID_00000127722378897472213740000003503457857099311771_);" d="M300.48,789.87l1.38-1.81
			c47.09-61.93,135.35-74.73,197.13-28.59c61.79,46.14,73.7,133.76,26.62,195.69c-6.24-9.24-13.57-17.7-21.84-25.18
			c22.42-37.96,24-86.36-0.08-126.43c-35.14-58.48-111.63-77.06-170.84-41.48C320.2,769.67,309.36,779.13,300.48,789.87
			L300.48,789.87z"/>
		<path class="st20" d="M300.48,789.87l1.38-1.81c47.08-61.93,135.34-74.74,197.13-28.6c61.78,46.15,73.7,133.76,26.61,195.69
			c-6.24-9.24-13.57-17.7-21.83-25.18c22.42-37.96,24-86.36-0.08-126.43c-35.14-58.49-111.63-77.06-170.84-41.48
			C320.56,769.43,309.61,778.84,300.48,789.87L300.48,789.87z"/>
	</g>
	<path class="st21" d="M504.62,1016.29h51.37c48.39,0,87.62-38.02,87.62-84.92c0-46.9-39.23-84.91-87.62-84.91h-74.14
		c-27.91,0-50.55,21.94-50.55,48.99v190.68L504.62,1016.29z"/>
</g>
</svg>
